<svg xmlns="http://www.w3.org/2000/svg" width="64.956" height="66.643" viewBox="0 0 64.956 66.643">
  <path fill="#93D130" d="M10.678 11.672h43.421v43.42H10.678z"/>
  <path fill="#86A052" d="M64.956 29.188L63.083 7.095H52.519z"/>
  <path fill="#93D130" d="M54.951 25.24a3.508 3.508 0 0 1-4.726 1.524l-8.037-4.121a3.51 3.51 0 0 1-1.522-4.727l8.207-16.005A3.51 3.51 0 0 1 53.6.387l8.035 4.119a3.511 3.511 0 0 1 1.522 4.729L54.951 25.24z"/>
  <path fill="#86A052" d="M0 29.188L1.874 7.095h10.563z"/>
  <path fill="#93D130" d="M10.004 25.24a3.511 3.511 0 0 0 4.728 1.524l8.035-4.121a3.51 3.51 0 0 0 1.524-4.727L16.083 1.912A3.51 3.51 0 0 0 11.356.388L3.322 4.506a3.514 3.514 0 0 0-1.525 4.729l8.207 16.005z"/>
  <path fill="#86A052" d="M0 37.456l1.874 22.09h10.563z"/>
  <path fill="#93D130" d="M10.004 41.401a3.511 3.511 0 0 1 4.728-1.523l8.035 4.119a3.514 3.514 0 0 1 1.524 4.729l-8.207 16.007a3.51 3.51 0 0 1-4.727 1.524l-8.035-4.121a3.512 3.512 0 0 1-1.524-4.728l8.206-16.007z"/>
  <path fill="#86A052" d="M64.956 37.456l-1.873 22.09H52.519z"/>
  <path fill="#93D130" d="M54.951 41.401a3.509 3.509 0 0 0-4.726-1.523l-8.037 4.119a3.514 3.514 0 0 0-1.522 4.729l8.207 16.007a3.51 3.51 0 0 0 4.727 1.524l8.035-4.121a3.51 3.51 0 0 0 1.522-4.728l-8.206-16.007z"/>
  <g fill="#FFF">
    <path d="M19.438 23.304h2.424v3.52l3.544-3.52h3.395l-4.651 4.64 4.579 4.589h-3.472l-2.817-2.842-.579.591v2.251h-2.424v-9.229zM33.479 23.304h1.082l4.344 9.229h-2.424l-.566-1.205h-3.778l-.554 1.205h-2.412l4.308-9.229zm1.489 5.983l-.936-2.032-.947 2.032h1.883zM41.551 25.704h-2.4v-2.412h7.273v2.412h-2.449v6.83h-2.424v-6.83zM19.438 34.123h3.889a3.402 3.402 0 0 1 3.396 3.396c0 1.859-1.514 3.385-3.348 3.385h-1.513v2.449h-2.424v-9.23zm3.925 4.688c.739 0 1.33-.579 1.33-1.316 0-.74-.59-1.328-1.33-1.328h-1.5v2.645h1.5zM32.298 34.123h1.082l4.344 9.229H35.3l-.566-1.207h-3.778l-.553 1.207H27.99l4.308-9.229zm1.488 5.981l-.936-2.031-.947 2.031h1.883zM41.515 36.522h-2.4V34.11h7.273v2.412h-2.45v6.83h-2.423v-6.83z"/>
  </g>
</svg>
