<svg xmlns="http://www.w3.org/2000/svg" width="100%" height="100%" viewBox="0 0 306.1 168.379">
  <g fill="#93D130">
    <path d="M126.353 19.833c0-1.104.147-2.163.442-3.18.296-1.015.736-1.938 1.322-2.768s1.194-1.416 1.823-1.758l.279.893c-.714.548-1.298 1.383-1.755 2.506-.456 1.123-.706 2.38-.751 3.771l-.007.623c0 1.885.345 3.521 1.032 4.906.415.83.908 1.48 1.48 1.949l-.279.827c-.649-.361-1.27-.967-1.859-1.816-1.152-1.659-1.727-3.643-1.727-5.953zM134.885 19.407c-1.206-.346-2.084-.772-2.633-1.277a2.44 2.44 0 0 1-.824-1.871c0-.84.336-1.535 1.007-2.084.672-.55 1.544-.824 2.619-.824.732 0 1.385.142 1.959.425a3.226 3.226 0 0 1 1.333 1.172c.314.498.472 1.043.472 1.634h-1.413c0-.647-.205-1.155-.615-1.525s-.989-.555-1.735-.555c-.694 0-1.234.152-1.623.458-.388.306-.582.73-.582 1.273 0 .436.185.804.553 1.104.369.301.996.575 1.883.825.886.249 1.579.524 2.08.824.5.301.871.651 1.113 1.052.241.4.362.871.362 1.413 0 .864-.337 1.557-1.011 2.076-.674.521-1.574.78-2.703.78a5.028 5.028 0 0 1-2.051-.421c-.635-.281-1.124-.665-1.468-1.153a2.811 2.811 0 0 1-.517-1.663h1.414c0 .645.237 1.153.714 1.527.476.373 1.111.56 1.907.56.742 0 1.312-.15 1.707-.453s.594-.716.594-1.238-.184-.927-.55-1.212c-.366-.286-1.03-.567-1.992-.847zM142.15 24.161h-1.406V13.497h1.406v10.664zM144.722 24.161V13.497h3.01c.928 0 1.748.205 2.461.615s1.264.994 1.651 1.75c.389.758.585 1.627.59 2.607v.682c0 1.006-.194 1.888-.582 2.645a4.086 4.086 0 0 1-1.663 1.742c-.72.406-1.559.613-2.516.623h-2.951zm1.406-9.514v8.363h1.479c1.084 0 1.928-.337 2.531-1.011.603-.675.904-1.635.904-2.882v-.623c0-1.212-.284-2.153-.854-2.825-.568-.672-1.376-1.013-2.42-1.022h-1.64zM160.585 19.231h-4.621v3.779h5.369v1.15h-6.775V13.497h6.701v1.15h-5.294v3.435h4.621v1.149zM170.327 22.294l3.047-8.797h1.539l-3.955 10.664h-1.246l-3.947-10.664h1.531l3.031 8.797zM177.849 24.161h-1.406V13.497h1.406v10.664zM186.448 19.231h-4.621v3.779h5.367v1.15h-6.773V13.497h6.701v1.15h-5.295v3.435h4.621v1.149zM191.245 20.8l.205 1.406.301-1.268 2.109-7.441h1.186l2.059 7.441.293 1.289.227-1.436 1.656-7.295h1.414l-2.586 10.664h-1.281l-2.197-7.771-.17-.812-.168.812-2.277 7.771h-1.281l-2.578-10.664h1.406l1.682 7.304zM205.278 19.905c0 1.09-.143 2.133-.428 3.132a9.289 9.289 0 0 1-1.312 2.765c-.588.845-1.203 1.445-1.848 1.802l-.287-.827c.752-.577 1.357-1.472 1.812-2.685.457-1.214.689-2.56.701-4.04v-.234c0-1.025-.109-1.979-.322-2.859-.217-.882-.516-1.671-.898-2.369s-.814-1.243-1.293-1.634l.287-.827c.645.356 1.258.951 1.842 1.787.582.834 1.02 1.755 1.311 2.761s.435 2.082.435 3.228z"/>
  </g>
  <g fill="#0071BC">
    <path d="M277.624 1.59l2.01 5.672 1.998-5.672h2.115v7.82h-1.615V7.272l.16-3.69-2.111 5.828h-1.105l-2.105-5.822.16 3.685V9.41h-1.611V1.59h2.104zM289.667 7.799h-2.826l-.537 1.611h-1.713l2.912-7.82h1.492l2.928 7.82h-1.713l-.543-1.611zm-2.391-1.305h1.955l-.982-2.928-.973 2.928zM295.45 4.286l1.467-2.696h1.854l-2.277 3.878 2.336 3.942h-1.875l-1.504-2.739-1.504 2.739h-1.873l2.336-3.942-2.277-3.878h1.854l1.463 2.696z"/>
  </g>
  <g fill="#0071BC">
    <path d="M143.38 156.091l2.009 5.672 1.998-5.672h2.116v7.82h-1.616v-2.139l.16-3.689-2.11 5.828h-1.106l-2.105-5.822.161 3.684v2.139h-1.611v-7.82h2.104zM152.625 163.912h-1.611v-7.82h1.611v7.82zM160.476 163.912h-1.611l-3.137-5.146v5.146h-1.611v-7.82h1.611l3.142 5.156v-5.156h1.606v7.82z"/>
  </g>
  <path fill="none" stroke="#93D130" stroke-width="4" stroke-linecap="round" stroke-linejoin="round" stroke-miterlimit="10" d="M143.728 104.405a8.118 8.118 0 0 1-8.128 8.109l-50.217-.058a8.12 8.12 0 0 1-8.111-8.13l.043-37.612a8.12 8.12 0 0 1 8.13-8.109l50.216.058a8.12 8.12 0 0 1 8.111 8.129l-.044 37.613z"/>
  <path opacity=".3" fill="#93D130" d="M.104 39.967l86.938.098c7.587.007 13.729 6.165 13.72 13.75l-.074 63.62c-.008 7.586-6.164 13.727-13.748 13.717L0 131.054"/>
  <path fill="none" stroke="#93D130" stroke-width="4" stroke-linecap="round" stroke-linejoin="round" stroke-miterlimit="10" d="M129.554 87.002a8.121 8.121 0 0 1-8.007-8.232l.093-6.675a8.122 8.122 0 0 1 8.233-8.007l88.827.677a8.12 8.12 0 0 1 8.005 8.231l-.094 6.677a8.119 8.119 0 0 1-8.231 8.005l-88.826-.676z"/>
  <path fill="none" stroke="#93D130" stroke-width="4" stroke-linecap="round" stroke-linejoin="round" stroke-miterlimit="10" d="M266.337 149.605s-22.123-37.476-33.966-48.953c-11.57-11.207-32.863-22.966-32.863-22.966l16.8-19.556c30.899 23.371 50.029 91.475 50.029 91.475z"/>
  <path fill="none" stroke="#0071BC" stroke-width="2" stroke-linecap="round" stroke-linejoin="round" stroke-miterlimit="10" d="M268.337 9.348c39.226 27.749 48.529 82.043 20.779 121.269-27.749 39.226-82.043 48.529-121.269 20.78"/>
  <path fill="none" stroke="#0071BC" stroke-width="2" stroke-linecap="round" stroke-linejoin="round" stroke-miterlimit="10" d="M268.337 9.348c39.226 27.749 48.529 82.043 20.779 121.269-27.749 39.226-82.043 48.529-121.269 20.78"/>
  <path opacity=".1" fill="#0071BC" d="M268.337 9.348c39.226 27.749 48.529 82.043 20.779 121.269-27.749 39.226-82.043 48.529-121.269 20.78"/>
  <g fill="none" stroke="#0071BC" stroke-width="2" stroke-linecap="round" stroke-linejoin="round">
    <path d="M268.337 9.348l-1.159 1.63"/>
    <path stroke-dasharray="4.1096,6.1644" d="M263.606 16.002l-93.462 131.465"/>
    <path d="M168.358 149.98l-1.159 1.63"/>
  </g>
  <path fill="#0071BC" d="M213.652 61.136l22.681 19.348-10.628 12.46-22.68-19.349z"/>
</svg>