<svg xmlns="http://www.w3.org/2000/svg" width="100%" height="100%" viewBox="0 0 325.894 178.884">
  <path opacity=".1" fill="#0071BC" d="M255.202 115.099C254.016 51.974 202.469 1.163 139.058 1.163l-2.068 114.393 3.396-.737h112.477l2.339.28z"/>
  <path fill="none" stroke="#93D130" stroke-width="4" stroke-linecap="round" stroke-linejoin="round" stroke-miterlimit="10" d="M232.758 129.941c-.005 3.985-2.495 7.212-5.562 7.208l-34.35-.039c-3.068-.004-5.551-3.236-5.546-7.223l.038-33.422c.004-3.983 2.494-7.212 5.562-7.207l34.349.039c3.068.002 5.551 3.236 5.547 7.221l-.038 33.423z"/>
  <path opacity=".3" fill="#93D130" d="M139.397 96.32l-13.691-.009c-1.425-6.124-6.901-10.696-13.461-10.703L.131 85.534 0 178.884h125.979l.033-40.056 13.338.009a6.409 6.409 0 0 0 6.417-6.402l.035-29.696a6.41 6.41 0 0 0-6.405-6.419z"/>
  <g fill="#0071BC">
    <path d="M264.385 113l2.009 5.672 1.998-5.672h2.116v7.82h-1.616v-2.138l.16-3.69-2.11 5.828h-1.106l-2.105-5.822.161 3.685v2.138h-1.611V113h2.104zM276.427 119.209h-2.825l-.537 1.611h-1.714l2.912-7.82h1.492l2.928 7.82h-1.713l-.543-1.611zm-2.391-1.305h1.955l-.982-2.928-.973 2.928zM282.211 115.696l1.467-2.696h1.854l-2.277 3.878 2.336 3.942h-1.875l-1.504-2.739-1.504 2.739h-1.874l2.337-3.942-2.278-3.878h1.853l1.465 2.696z"/>
  </g>
  <g fill="#0071BC">
    <path d="M112.141 0l2.009 5.672L116.148 0h2.116v7.82h-1.616V5.683l.16-3.69-2.11 5.828h-1.106l-2.105-5.822.161 3.685V7.82h-1.611V0h2.104zM121.385 7.82h-1.611V0h1.611v7.82zM129.237 7.82h-1.611l-3.137-5.146V7.82h-1.611V0h1.611l3.142 5.156V0h1.606v7.82z"/>
  </g>
  <path fill="none" stroke="#93D130" stroke-width="4" stroke-linecap="round" stroke-linejoin="round" stroke-miterlimit="10" d="M204.761 118.063a8.119 8.119 0 0 1-8.129 8.109h-60.218c-4.484-.006-8.115-3.701-8.111-8.188l.043-7.608a8.12 8.12 0 0 1 8.131-8.109h60.216c4.486.004 8.117 3.701 8.111 8.186l-.043 7.61zM263.131 136.151s-16.9-14.108-24.581-11.156c-7.452 2.865-5.052 1.023-5.052 1.023l-1.092-15.441c21.549-2.17 30.725 25.574 30.725 25.574z"/>
  <g fill="none" stroke="#0071BC" stroke-width="2" stroke-linecap="round" stroke-linejoin="round">
    <path d="M143.769 116.255h2"/>
    <path stroke-dasharray="4.0891,6.1337" d="M151.902 116.255h99.162"/>
    <path d="M254.131 116.255h2"/>
  </g>
  <g fill="none" stroke="#0071BC" stroke-width="2" stroke-linecap="round" stroke-linejoin="round">
    <path d="M137.596 1.163l-.011 2"/>
    <path stroke-dasharray="3.9771,5.9657" d="M137.552 9.129l-.535 96.444"/>
    <path d="M137 108.556l-.011 2"/>
  </g>
  <path fill="none" stroke="#0071BC" stroke-width="2" stroke-linecap="round" stroke-linejoin="round" stroke-miterlimit="10" d="M139.058 1.163c63.411 0 114.958 50.811 116.145 113.936"/>
  <g fill="#93D130">
    <path d="M249.789 35.493c0-1.104.147-2.163.442-3.18.296-1.015.736-1.938 1.322-2.768s1.194-1.416 1.823-1.758l.279.893c-.714.548-1.298 1.383-1.755 2.506-.456 1.123-.706 2.38-.751 3.771l-.007.623c0 1.885.345 3.521 1.032 4.906.415.83.908 1.48 1.48 1.949l-.279.827c-.649-.361-1.27-.967-1.859-1.816-1.152-1.659-1.727-3.644-1.727-5.953zM262.547 30.307h-3.428v9.514h-1.398v-9.514h-3.42v-1.15h8.246v1.15zM272.128 34.833c0 1.046-.176 1.957-.527 2.736-.352.778-.85 1.373-1.494 1.783s-1.397.615-2.256.615c-.841 0-1.585-.206-2.234-.619-.649-.412-1.153-1.001-1.513-1.765-.358-.765-.543-1.649-.553-2.655v-.77c0-1.025.178-1.931.534-2.717s.861-1.388 1.513-1.806c.652-.417 1.397-.626 2.237-.626.854 0 1.608.206 2.26.619.652.412 1.154 1.011 1.506 1.794.352.784.527 1.696.527 2.735v.676zm-1.399-.688c0-1.265-.254-2.235-.762-2.912-.508-.676-1.219-1.014-2.132-1.014-.889 0-1.588.338-2.098 1.014-.511.677-.773 1.615-.787 2.816v.783c0 1.227.257 2.189.772 2.89.515.701 1.224 1.052 2.128 1.052.908 0 1.611-.331 2.109-.993.498-.661.754-1.609.769-2.845v-.791zM275.644 35.646v4.175h-1.406V29.157h3.933c1.167 0 2.081.298 2.743.894.661.596.992 1.384.992 2.366 0 1.035-.323 1.832-.971 2.391-.646.56-1.573.839-2.779.839h-2.512zm0-1.149h2.526c.752 0 1.328-.178 1.729-.532s.601-.867.601-1.537c0-.636-.2-1.145-.601-1.526s-.95-.58-1.647-.594h-2.607v4.189zM290.942 37.954l3.047-8.797h1.539l-3.955 10.664h-1.246l-3.947-10.664h1.531l3.031 8.797zM298.465 39.821h-1.406V29.157h1.406v10.664zM307.063 34.891h-4.621v3.779h5.368v1.15h-6.774V29.157h6.701v1.15h-5.295v3.435h4.621v1.149zM311.86 36.459l.205 1.406.301-1.268 2.109-7.441h1.187l2.058 7.441.293 1.289.228-1.436 1.655-7.295h1.414l-2.586 10.664h-1.281l-2.197-7.771-.169-.812-.169.812-2.277 7.771h-1.281l-2.578-10.664h1.406l1.682 7.304zM325.894 35.565c0 1.09-.143 2.133-.428 3.132a9.264 9.264 0 0 1-1.312 2.765c-.588.845-1.204 1.445-1.849 1.802l-.286-.827c.752-.577 1.356-1.472 1.812-2.685.457-1.214.689-2.56.7-4.04v-.234c0-1.025-.108-1.979-.322-2.859a9.735 9.735 0 0 0-.897-2.369c-.384-.698-.814-1.243-1.293-1.634l.286-.827c.645.356 1.258.951 1.842 1.787a9.263 9.263 0 0 1 1.311 2.761c.291 1.004.436 2.081.436 3.228z"/>
  </g>
  <path fill="#0071BC" d="M128.598 104.72h21.078v18.875h-21.078z"/>
</svg>