<svg xmlns="http://www.w3.org/2000/svg" width="100%" height="100%" viewBox="0 0 328.278 153.812">
  <g fill="#0071BC">
    <path d="M106.358 0l2.009 5.672L110.365 0h2.116v7.82h-1.616V5.683l.16-3.69-2.11 5.828h-1.106l-2.105-5.822.161 3.685V7.82h-1.611V0h2.104zM118.4 6.209h-2.825l-.537 1.611h-1.714L116.236 0h1.492l2.928 7.82h-1.713l-.543-1.611zm-2.391-1.305h1.955l-.982-2.928-.973 2.928zM124.184 2.696L125.651 0h1.854l-2.277 3.878 2.336 3.942h-1.875l-1.504-2.739-1.505 2.739h-1.874l2.337-3.942L120.866 0h1.853l1.465 2.696z"/>
  </g>
  <g fill="#0071BC">
    <path d="M213.827 143.487l2.008 5.672 1.998-5.672h2.117v7.82h-1.617v-2.139l.16-3.689-2.109 5.828h-1.107l-2.105-5.822.162 3.684v2.139h-1.611v-7.82h2.104zM223.071 151.307h-1.611v-7.82h1.611v7.82zM230.923 151.307h-1.611l-3.137-5.146v5.146h-1.611v-7.82h1.611l3.141 5.156v-5.156h1.607v7.82z"/>
  </g>
  <path fill="none" stroke="#93D130" stroke-width="4" stroke-linecap="round" stroke-linejoin="round" stroke-miterlimit="10" d="M143.728 127.065a8.118 8.118 0 0 1-8.128 8.109l-50.217-.058a8.12 8.12 0 0 1-8.111-8.13l.043-37.612a8.12 8.12 0 0 1 8.13-8.109l50.216.058a8.12 8.12 0 0 1 8.111 8.129l-.044 37.613z"/>
  <path opacity=".3" fill="#93D130" d="M.104 62.627l86.938.098c7.587.007 13.729 6.165 13.72 13.75l-.074 63.62c-.008 7.586-6.164 13.727-13.748 13.717L0 153.714"/>
  <path fill="none" stroke="#93D130" stroke-width="4" stroke-linecap="round" stroke-linejoin="round" stroke-miterlimit="10" d="M136.242 108.83a8.122 8.122 0 0 1-11.13-2.829l-3.412-5.738a8.122 8.122 0 0 1 2.829-11.13l76.063-45.882a8.12 8.12 0 0 1 11.128 2.829l3.412 5.74a8.118 8.118 0 0 1-2.829 11.128l-76.061 45.882z"/>
  <path fill="none" stroke="#93D130" stroke-width="4" stroke-linecap="round" stroke-linejoin="round" stroke-miterlimit="10" d="M268.432 121.385s-28.519-32.872-42.237-42.024c-13.402-8.937-36.467-16.662-36.467-16.662l12.998-22.265c34.607 17.414 65.706 80.951 65.706 80.951z"/>
  <g fill="none" stroke="#0071BC" stroke-width="2" stroke-linecap="round" stroke-linejoin="round">
    <path d="M136.888 88.791v-2"/>
    <path stroke-dasharray="3.7885,5.6828" d="M136.888 81.108V8.179"/>
    <path d="M136.888 5.337v-2"/>
  </g>
  <g fill="none" stroke="#0071BC" stroke-width="2" stroke-linecap="round" stroke-linejoin="round">
    <path d="M209.229 137.981l-1.685-1.077"/>
    <path stroke-dasharray="3.8385,5.7578" d="M202.692 133.802l-62.254-39.804"/>
    <path d="M138.013 92.447l-1.686-1.077"/>
  </g>
  <path fill="none" stroke="#0071BC" stroke-width="2" stroke-linecap="round" stroke-linejoin="round" stroke-miterlimit="10" d="M209.017 137.852c8.994-13.826 14.219-30.33 14.219-48.054 0-48.176-38.603-87.338-86.562-88.239"/>
  <path opacity=".1" fill="#0071BC" d="M136.674 1.559c47.959.901 86.562 40.063 86.562 88.239 0 17.806-5.273 34.38-14.344 48.245l-.453-.293-72.112-46.38.561-2.579V3.337l-.214-1.778z"/>
  <path fill="#0071BC" d="M125.048 92.272l25.221-15.896 8.732 13.854-25.221 15.896z"/>
  <g fill="#93D130">
    <path d="M249.354 36.494c0-1.104.147-2.163.442-3.18.296-1.015.736-1.938 1.322-2.768s1.194-1.416 1.823-1.758l.279.893c-.714.548-1.298 1.383-1.755 2.506-.456 1.123-.706 2.38-.751 3.771l-.007.623c0 1.885.345 3.521 1.032 4.906.415.83.908 1.48 1.48 1.949l-.279.827c-.649-.361-1.27-.967-1.859-1.816-1.152-1.659-1.727-3.643-1.727-5.953zM257.886 36.068c-1.206-.346-2.084-.772-2.633-1.277a2.44 2.44 0 0 1-.824-1.871c0-.84.336-1.535 1.007-2.084.672-.55 1.544-.824 2.619-.824.732 0 1.385.142 1.959.425a3.226 3.226 0 0 1 1.333 1.172c.314.498.472 1.043.472 1.634h-1.413c0-.647-.205-1.155-.615-1.525s-.989-.555-1.735-.555c-.694 0-1.234.152-1.623.458-.388.306-.582.73-.582 1.273 0 .436.185.804.553 1.104.369.301.996.575 1.883.825.886.249 1.579.524 2.08.824.5.301.871.651 1.113 1.052.241.4.362.871.362 1.413 0 .864-.337 1.557-1.011 2.076-.674.521-1.574.78-2.703.78a5.028 5.028 0 0 1-2.051-.421c-.635-.281-1.124-.665-1.468-1.153a2.811 2.811 0 0 1-.517-1.663h1.414c0 .645.237 1.153.714 1.527.476.373 1.111.56 1.907.56.742 0 1.312-.15 1.707-.453s.594-.716.594-1.238-.184-.927-.55-1.212c-.366-.286-1.03-.567-1.992-.847zM265.15 40.822h-1.406V30.158h1.406v10.664zM267.723 40.822V30.158h3.01c.928 0 1.748.205 2.461.615s1.264.994 1.651 1.75c.389.758.585 1.627.59 2.607v.682c0 1.006-.194 1.888-.582 2.645a4.086 4.086 0 0 1-1.663 1.742c-.72.406-1.559.613-2.516.623h-2.951zm1.406-9.513v8.363h1.479c1.084 0 1.928-.337 2.531-1.011.603-.675.904-1.635.904-2.882v-.623c0-1.212-.284-2.153-.854-2.825-.568-.672-1.376-1.013-2.42-1.022h-1.64zM283.586 35.893h-4.621v3.779h5.368v1.15h-6.774V30.158h6.701v1.15h-5.295v3.435h4.621v1.15zM293.327 38.955l3.047-8.797h1.539l-3.955 10.664h-1.246l-3.947-10.664h1.531l3.031 8.797zM300.85 40.822h-1.406V30.158h1.406v10.664zM309.448 35.893h-4.621v3.779h5.368v1.15h-6.774V30.158h6.701v1.15h-5.295v3.435h4.621v1.15zM314.245 37.461l.205 1.406.301-1.268 2.109-7.441h1.187l2.058 7.441.293 1.289.228-1.436 1.655-7.295h1.414l-2.586 10.664h-1.281l-2.197-7.771-.169-.812-.169.812-2.277 7.771h-1.281l-2.578-10.664h1.406l1.682 7.304zM328.278 36.566c0 1.09-.143 2.133-.428 3.132a9.264 9.264 0 0 1-1.312 2.765c-.588.845-1.204 1.445-1.849 1.802l-.286-.827c.752-.577 1.356-1.472 1.812-2.685.457-1.214.689-2.56.7-4.04v-.234c0-1.025-.108-1.979-.322-2.859a9.735 9.735 0 0 0-.897-2.369c-.384-.698-.814-1.243-1.293-1.634l.286-.827c.645.356 1.258.951 1.842 1.787a9.263 9.263 0 0 1 1.311 2.761c.292 1.005.436 2.082.436 3.228z"/>
  </g>
</svg>